<?xml version="1.0" standalone="no"?>
<!DOCTYPE svg PUBLIC "-//W3C//DTD SVG 20010904//EN"
 "http://www.w3.org/TR/2001/REC-SVG-20010904/DTD/svg10.dtd">
<svg version="1.0" xmlns="http://www.w3.org/2000/svg"
 width="378.000000pt" height="378.000000pt" viewBox="0 0 378.000000 378.000000"
 preserveAspectRatio="xMidYMid meet">

<g transform="translate(0.000000,378.000000) scale(0.100000,-0.100000)"
fill="#000000" stroke="none">
<path d="M1859 3741 c-81 -59 -119 -92 -119 -104 0 -7 4 -7 12 1 7 7 19 12 27
12 8 0 30 12 48 26 24 18 49 27 81 29 77 4 75 2 67 32 -13 55 -43 56 -116 4z"/>
<path d="M2205 3741 c-4 -7 6 -14 25 -18 21 -4 35 -14 41 -29 4 -13 15 -24 24
-24 8 0 15 -4 15 -10 0 -5 7 -10 15 -10 9 0 18 -6 21 -14 3 -8 16 -17 30 -20
33 -9 31 -36 -2 -36 -19 0 -25 -4 -20 -15 4 -13 2 -13 -14 -5 -10 5 -34 10
-52 10 -35 0 -58 15 -58 37 0 7 11 13 25 13 46 0 26 15 -53 38 -65 19 -82 21
-109 12 -34 -12 -41 -28 -22 -47 8 -8 8 -13 0 -17 -6 -4 -11 0 -11 8 0 9 -8
16 -19 16 -24 0 -33 -43 -14 -63 19 -18 6 -49 -19 -45 -13 2 -23 -5 -28 -18
-7 -17 -1 -30 27 -59 27 -29 37 -34 44 -24 5 8 9 20 9 27 0 17 25 15 40 -3 7
-9 21 -13 31 -10 13 4 19 1 19 -8 0 -8 7 -20 15 -27 8 -7 15 -22 15 -34 -1
-18 -2 -19 -13 -6 -7 9 -31 23 -54 32 -43 16 -43 16 -43 -6 0 -30 32 -58 62
-55 13 2 34 -3 47 -10 21 -11 25 -11 33 3 5 9 20 16 33 16 13 0 25 4 27 9 6
16 67 0 73 -19 6 -20 32 -33 46 -25 12 8 -13 45 -31 46 -11 0 -11 2 -2 6 7 3
31 -2 52 -11 22 -9 66 -19 97 -23 l57 -6 -17 26 c-22 35 -22 40 6 31 21 -6 20
-5 -5 23 -16 16 -28 34 -28 39 0 6 -12 15 -27 21 -26 10 -26 11 -6 12 13 1 28
10 35 21 15 23 48 27 48 5 0 -19 20 -19 54 -1 28 14 66 58 66 75 0 14 17 14
25 1 8 -12 25 -13 25 -1 0 17 -262 126 -284 118 -6 -3 1 -10 17 -16 15 -6 27
-13 27 -16 0 -9 -92 2 -125 15 -15 6 -30 8 -33 5 -3 -3 -13 8 -23 24 -10 16
-29 30 -45 34 -16 3 -36 8 -45 12 -10 3 -20 2 -24 -4z m276 -136 c-1 -15 -24
-12 -29 3 -3 9 2 13 12 10 10 -1 17 -7 17 -13z m-315 -61 c-3 -9 -6 -21 -6
-27 0 -7 -7 -3 -15 7 -16 21 -11 36 12 36 10 0 13 -6 9 -16z m229 -44 c-22
-10 -32 -19 -22 -19 9 -1 17 -8 17 -17 0 -21 -38 -9 -67 23 -13 13 -23 25 -23
26 0 2 30 3 68 4 l67 1 -40 -18z m-245 -145 c0 -8 -4 -15 -8 -15 -5 0 -9 7 -9
15 0 8 4 15 9 15 4 0 8 -7 8 -15z"/>
<path d="M1893 3526 c3 -33 10 -62 15 -65 6 -3 12 -17 13 -30 4 -24 5 -24 22
-7 17 17 17 20 1 37 -9 10 -14 27 -11 38 3 12 -5 33 -20 53 l-25 33 5 -59z"/>
<path d="M1792 3525 c-47 -34 -106 -86 -116 -103 -18 -31 -24 -81 -11 -98 11
-16 13 -16 25 5 6 13 9 33 6 46 -4 14 0 27 9 35 8 7 15 19 15 27 0 28 17 3 23
-34 4 -24 2 -40 -6 -45 -20 -12 -9 -158 12 -158 9 0 20 67 25 151 2 52 38 121
58 114 10 -4 14 6 13 36 0 23 -4 43 -10 45 -5 1 -25 -8 -43 -21z"/>
<path d="M2900 3470 c0 -5 -6 -58 -14 -117 -16 -115 -30 -232 -31 -247 0 -5 5
-11 10 -13 14 -4 35 54 35 95 0 17 6 35 14 39 17 10 28 90 12 97 -8 3 -8 5 0
5 27 2 37 -28 25 -71 -11 -36 -11 -43 3 -54 22 -15 20 -31 -4 -44 -11 -6 -20
-17 -20 -25 0 -8 -4 -15 -10 -15 -5 0 -10 -5 -10 -11 0 -5 5 -7 11 -4 20 13
43 -38 46 -100 3 -89 -4 -112 -35 -120 l-27 -7 25 -11 c14 -6 28 -15 31 -20
10 -13 82 -4 87 12 3 8 0 11 -6 7 -15 -9 -42 4 -42 19 0 8 4 17 10 20 6 3 7
-1 4 -9 -5 -12 1 -16 21 -16 l28 0 -7 58 c-4 31 -9 74 -12 94 -6 34 -4 39 20
48 17 6 26 16 24 27 -2 12 7 20 30 27 29 8 33 13 29 34 -6 31 27 73 36 48 8
-20 37 -21 37 -1 0 8 -9 24 -20 35 -19 19 -22 19 -46 4 -33 -22 -49 -7 -46 44
2 36 -1 41 -53 78 -31 21 -65 47 -77 57 -12 9 -27 17 -33 17 -7 0 -15 7 -19
15 -6 17 -26 21 -26 5z m120 -106 c0 -2 -9 -4 -21 -4 -11 0 -18 4 -14 10 5 8
35 3 35 -6z m-10 -34 c0 -5 9 -10 19 -10 34 0 34 -20 0 -34 -31 -13 -34 -13
-46 11 -18 34 -16 43 7 43 11 0 20 -4 20 -10z"/>
<path d="M1814 3429 c-3 -6 -1 -16 5 -22 8 -8 11 -5 11 11 0 24 -5 28 -16 11z"/>
<path d="M701 3334 c0 -11 3 -14 6 -6 3 7 2 16 -1 19 -3 4 -6 -2 -5 -13z"/>
<path d="M1967 3344 c-12 -12 -8 -23 13 -34 23 -12 26 -2 7 24 -7 9 -16 14
-20 10z"/>
<path d="M2041 3291 c10 -29 18 -38 79 -91 l35 -31 -33 12 c-44 15 -49 7 -18
-26 15 -16 26 -31 26 -35 0 -4 14 -13 30 -20 17 -7 30 -19 30 -26 0 -16 -12
-18 -25 -5 -6 5 -27 14 -48 21 -25 8 -41 20 -48 37 -5 14 -23 43 -39 63 -17
21 -30 41 -30 46 0 12 -44 74 -52 74 -12 0 -10 -48 2 -55 6 -3 10 -17 10 -31
0 -14 7 -27 15 -30 8 -4 15 -14 15 -23 0 -9 7 -25 16 -36 14 -18 13 -20 -8
-25 -21 -6 -21 -7 13 -45 20 -22 45 -55 58 -73 32 -47 61 -60 78 -36 12 16 15
17 23 4 5 -8 12 -11 16 -7 7 6 44 -54 44 -72 0 -5 -10 -9 -22 -9 -13 0 -32 -3
-44 -7 -15 -5 -30 3 -62 34 -23 23 -41 46 -40 52 2 6 -3 14 -9 16 -7 3 -13 -1
-13 -7 0 -9 -4 -9 -12 -3 -35 27 -45 22 -44 -18 0 -29 5 -39 17 -39 9 0 29 -6
44 -14 l27 -14 -23 -4 c-13 -2 -42 2 -64 10 -22 7 -62 17 -88 21 -46 8 -49 7
-58 -17 -12 -31 0 -45 38 -44 116 2 189 0 195 -6 7 -7 -4 -128 -13 -136 -4 -4
-108 8 -169 20 -32 6 -34 5 -21 -10 7 -9 10 -16 7 -16 -9 0 -50 21 -56 29 -32
40 -120 86 -120 63 0 -13 63 -69 98 -86 17 -9 32 -23 32 -31 0 -19 14 -19 34
0 8 8 23 15 33 15 15 0 14 -4 -7 -21 -14 -11 -44 -29 -68 -41 -41 -20 -43 -20
-63 -2 -14 12 -18 25 -14 41 4 18 0 26 -20 35 -19 9 -28 9 -37 0 -7 -7 -16
-12 -20 -12 -14 0 -99 183 -88 190 5 3 1 19 -10 38 -11 18 -20 40 -20 50 0 10
-7 28 -16 41 -10 14 -14 33 -10 52 3 16 0 41 -6 55 -11 24 -14 25 -66 18 -48
-6 -54 -5 -49 9 4 10 -1 18 -14 22 -10 4 -19 15 -19 26 0 11 -7 19 -16 19 -11
0 -13 -6 -9 -19 7 -24 -42 -74 -68 -67 -9 2 -14 0 -11 -5 3 -5 -1 -16 -10 -24
-8 -8 -24 -27 -35 -41 -23 -30 -93 -52 -151 -48 -96 6 -192 16 -253 25 -64 10
-68 13 -74 40 -7 37 -23 38 -23 1 0 -26 -3 -28 -30 -24 -25 3 -31 0 -40 -22
-11 -29 -11 -29 -157 -30 l-93 -1 0 29 c0 24 -2 26 -14 16 -8 -6 -12 -18 -9
-26 3 -8 -1 -14 -10 -14 -9 0 -36 -33 -61 -73 -46 -74 -55 -97 -36 -97 6 0 10
-7 10 -16 0 -14 7 -15 42 -10 52 8 55 11 33 32 -18 19 -14 53 11 92 12 18 24
22 77 24 34 1 78 1 97 0 42 -3 83 6 76 16 -5 9 300 7 381 -3 42 -5 60 -11 57
-20 -3 -6 2 -18 11 -25 8 -7 15 -18 15 -25 0 -6 9 -20 19 -29 11 -10 22 -34
25 -54 11 -66 16 -342 6 -342 -12 0 -18 34 -30 172 -9 105 -22 168 -34 168
-14 0 -60 -32 -93 -63 -21 -21 -53 -42 -72 -47 -48 -13 -86 -61 -120 -150 -82
-212 -91 -473 -25 -725 9 -38 11 -68 5 -101 -12 -61 3 -95 69 -159 29 -27 63
-67 76 -87 16 -26 32 -38 47 -38 33 0 76 -22 83 -42 3 -10 5 -104 6 -210 0
-106 4 -222 8 -258 5 -36 11 -110 15 -165 3 -55 9 -103 13 -106 4 -4 17 -3 30
2 19 7 22 16 22 65 0 68 15 68 41 0 12 -32 15 -55 9 -70 -4 -13 -9 -43 -11
-67 -1 -24 -8 -54 -15 -65 -7 -12 -9 -25 -5 -30 10 -12 30 -84 30 -109 1 -77
3 -95 12 -95 5 0 9 -5 9 -11 0 -22 45 -54 70 -51 14 2 34 -4 45 -13 11 -8 36
-28 56 -43 21 -15 62 -49 92 -75 52 -45 61 -49 144 -63 48 -8 152 -17 229 -21
l142 -6 16 31 c26 51 27 95 0 151 -13 29 -37 64 -54 78 -74 62 -237 153 -273
153 -9 0 -37 26 -62 58 l-45 57 45 9 c25 4 45 12 45 16 0 5 15 12 33 15 17 4
43 13 57 20 14 7 40 16 57 20 29 6 32 4 26 -11 -5 -14 -2 -16 21 -10 14 3 50
21 78 38 49 30 51 31 64 13 8 -10 14 -27 14 -36 0 -10 4 -20 9 -24 6 -3 10
-22 10 -43 1 -53 6 -82 20 -119 10 -26 20 -34 49 -38 21 -4 48 -11 62 -17 24
-10 24 -11 5 -18 -16 -6 -14 -8 15 -13 32 -6 73 -37 196 -147 17 -16 53 -40
79 -53 l48 -26 56 20 c106 38 301 139 301 155 0 30 -42 107 -73 133 -43 36
-122 85 -187 116 -119 56 -136 66 -152 95 -9 16 -39 40 -68 55 -43 22 -51 30
-47 48 3 12 11 48 18 79 10 43 19 59 36 67 38 17 46 14 87 -35 49 -58 79 -120
72 -148 -10 -44 47 -81 74 -47 14 19 17 20 44 6 51 -27 62 -15 27 29 -34 42
-32 53 13 95 14 14 26 29 26 34 0 16 80 118 132 167 77 74 76 113 -6 272 -62
121 -105 189 -174 278 l-51 65 78 15 c74 14 81 18 151 81 68 62 74 70 76 111
1 24 -4 71 -11 103 -7 33 -15 98 -18 145 -2 47 -14 137 -25 200 -11 63 -26
148 -32 189 -7 51 -22 95 -50 149 -22 41 -40 82 -40 90 0 24 49 62 80 62 16 0
40 4 54 10 23 8 25 12 16 35 -6 15 -10 40 -10 56 0 46 -26 98 -59 117 -16 9
-29 24 -29 32 3 37 -4 49 -38 65 -29 14 -41 15 -61 6 -24 -11 -24 -13 -9 -30
9 -10 16 -23 16 -29 0 -7 6 -12 13 -12 6 0 20 -7 30 -14 17 -13 17 -15 -7 -41
-14 -15 -28 -39 -31 -54 -3 -16 -17 -34 -29 -41 -22 -11 -29 -8 -80 29 -31 23
-56 48 -56 55 0 7 9 25 21 40 11 14 16 26 10 26 -16 0 -13 43 5 69 10 14 14
33 10 51 -3 17 1 41 9 57 30 57 10 86 -59 89 -66 2 -289 30 -308 39 -26 11
-22 -11 11 -72 16 -29 25 -53 19 -53 -17 0 -58 49 -58 70 0 22 -15 34 -31 25
-6 -5 -4 -12 8 -21 10 -7 13 -14 6 -14 -6 0 -15 5 -18 10 -3 6 -14 10 -25 10
-13 0 -17 5 -13 19 4 16 -3 22 -36 31 -22 6 -43 15 -46 20 -14 22 -23 8 -14
-19z m526 -67 c-3 -3 -12 -4 -19 -1 -8 3 -5 6 6 6 11 1 17 -2 13 -5z m-178
-43 c23 -15 -3 -20 -34 -6 -29 13 -29 13 -5 14 14 0 31 -3 39 -8z m-84 -41 c3
-5 2 -10 -4 -10 -5 0 -13 5 -16 10 -3 6 -2 10 4 10 5 0 13 -4 16 -10z m-975
-97 c-6 -21 -14 -44 -16 -52 -2 -8 -7 -11 -10 -8 -3 3 2 29 11 57 19 58 33 61
15 3z m990 -88 c11 -13 10 -14 -4 -9 -9 3 -16 10 -16 15 0 13 6 11 20 -6z
m-1035 -47 c-10 -13 -14 -16 -11 -8 3 8 9 24 13 35 4 11 8 14 11 7 2 -6 -4
-22 -13 -34z m735 12 c0 -5 -4 -10 -10 -10 -5 0 -10 5 -10 10 0 6 5 10 10 10
6 0 10 -4 10 -10z m10 -349 c0 -5 -11 -23 -25 -40 -24 -28 -25 -34 -19 -109 8
-95 -2 -107 -45 -55 -51 61 -35 147 34 188 45 26 55 29 55 16z m378 -278 c3
-20 -25 -46 -53 -48 -27 -2 -53 -18 -58 -34 -3 -14 -11 -17 -31 -14 -26 5 -26
5 -8 35 9 16 30 43 46 59 24 24 36 29 65 27 28 -2 37 -8 39 -25z m-373 -31
c50 -3 68 -9 73 -21 8 -22 22 -31 53 -31 36 0 58 -26 30 -35 -12 -3 -21 -10
-21 -14 0 -9 59 -21 107 -21 17 0 34 -4 38 -9 10 -17 -26 -41 -62 -41 -41 0
-113 -20 -113 -30 0 -4 -16 -11 -36 -15 -43 -8 -104 -35 -104 -47 0 -13 33 -9
101 11 35 10 82 22 104 26 39 7 39 6 22 -13 -18 -20 -110 -40 -224 -50 -59 -4
-99 14 -166 77 -84 79 -87 118 -11 163 112 67 129 75 136 64 4 -5 37 -12 73
-14z m572 -15 c1 -27 -3 -39 -17 -47 -23 -13 -37 4 -20 25 14 17 5 35 -18 35
-12 1 -10 5 8 15 35 20 44 14 47 -28z m-546 -968 c22 -41 -55 -91 -89 -57 -18
18 -15 38 11 59 30 25 64 24 78 -2z m-87 -172 c7 -7 16 -30 20 -52 4 -22 13
-46 19 -53 8 -11 7 -16 -6 -23 -9 -6 -17 -16 -17 -23 0 -23 -58 -66 -90 -66
-37 0 -38 15 -5 46 15 14 22 29 19 38 -6 14 34 146 44 146 2 0 9 -6 16 -13z"/>
<path d="M2105 2170 c-3 -5 -1 -10 4 -10 6 0 11 5 11 10 0 6 -2 10 -4 10 -3 0
-8 -4 -11 -10z"/>
<path d="M2048 2073 c7 -3 16 -2 19 1 4 3 -2 6 -13 5 -11 0 -14 -3 -6 -6z"/>
<path d="M1933 1993 c9 -2 23 -2 30 0 6 3 -1 5 -18 5 -16 0 -22 -2 -12 -5z"/>
<path d="M1908 923 c7 -3 16 -2 19 1 4 3 -2 6 -13 5 -11 0 -14 -3 -6 -6z"/>
<path d="M705 3271 c-3 -5 -1 -12 5 -16 5 -3 10 1 10 9 0 18 -6 21 -15 7z"/>
<path d="M1887 3214 c-9 -10 4 -34 19 -34 8 0 14 4 14 9 0 12 -26 32 -33 25z"/>
<path d="M710 3171 c0 -11 5 -23 10 -26 6 -3 10 3 10 14 0 11 -4 23 -10 26 -5
3 -10 -3 -10 -14z"/>
<path d="M2655 2860 c-8 -13 5 -13 25 0 13 8 13 10 -2 10 -9 0 -20 -4 -23 -10z"/>
<path d="M1894 2794 c3 -19 32 -38 46 -29 6 3 10 15 10 26 0 14 -7 19 -29 19
-21 0 -29 -4 -27 -16z"/>
<path d="M3538 2753 c-9 -10 -17 -23 -19 -28 -2 -6 -24 -46 -48 -89 -47 -84
-73 -147 -101 -242 -10 -33 -27 -79 -39 -102 -11 -23 -21 -53 -21 -66 0 -32
-29 -106 -41 -106 -15 0 -69 -92 -69 -118 0 -13 -5 -33 -12 -45 -21 -39 -27
-90 -17 -141 8 -41 19 -60 61 -103 71 -72 106 -87 182 -80 34 3 71 9 84 13
l23 7 -20 -34 c-35 -59 -102 -230 -136 -344 -18 -60 -40 -128 -50 -150 -34
-79 -49 -110 -59 -123 -5 -8 -11 -21 -12 -30 -1 -10 -12 -53 -24 -97 l-22 -79
46 -41 c42 -36 46 -44 47 -85 l0 -45 45 50 c122 135 279 415 348 625 126 380
126 802 0 1180 -32 96 -117 290 -127 290 -2 0 -11 -8 -19 -17z"/>
</g>
</svg>
